<svg id="visual" viewBox="0 0 960 540" width="960" height="540" xmlns="http://www.w3.org/2000/svg" xmlns:xlink="http://www.w3.org/1999/xlink" version="1.1"><path d="M0 343L137 386L274 380L411 362L549 328L686 355L823 347L960 396L960 541L823 541L686 541L549 541L411 541L274 541L137 541L0 541Z" fill="#ff6f61"></path><path d="M0 412L137 408L274 416L411 416L549 410L686 375L823 414L960 365L960 541L823 541L686 541L549 541L411 541L274 541L137 541L0 541Z" fill="#ff644f"></path><path d="M0 427L137 400L274 456L411 454L549 430L686 447L823 402L960 426L960 541L823 541L686 541L549 541L411 541L274 541L137 541L0 541Z" fill="#fe5a3c"></path><path d="M0 438L137 467L274 486L411 453L549 462L686 475L823 462L960 461L960 541L823 541L686 541L549 541L411 541L274 541L137 541L0 541Z" fill="#fb5126"></path><path d="M0 501L137 484L274 506L411 472L549 491L686 503L823 505L960 483L960 541L823 541L686 541L549 541L411 541L274 541L137 541L0 541Z" fill="#f74802"></path></svg>