<svg id="visual" viewBox="0 0 540 960" width="540" height="960" xmlns="http://www.w3.org/2000/svg" xmlns:xlink="http://www.w3.org/1999/xlink" version="1.1"><path d="M0 610L77 687L154 676L231 645L309 583L386 632L463 618L540 705L540 961L463 961L386 961L309 961L231 961L154 961L77 961L0 961Z" fill="#ff6f61"></path><path d="M0 733L77 726L154 741L231 741L309 730L386 667L463 737L540 650L540 961L463 961L386 961L309 961L231 961L154 961L77 961L0 961Z" fill="#ff6650"></path><path d="M0 759L77 712L154 812L231 807L309 766L386 795L463 716L540 758L540 961L463 961L386 961L309 961L231 961L154 961L77 961L0 961Z" fill="#ff5d3e"></path><path d="M0 780L77 831L154 864L231 805L309 822L386 846L463 823L540 820L540 961L463 961L386 961L309 961L231 961L154 961L77 961L0 961Z" fill="#ff5529"></path><path d="M0 891L77 862L154 900L231 840L309 875L386 896L463 899L540 859L540 961L463 961L386 961L309 961L231 961L154 961L77 961L0 961Z" fill="#fd4d08"></path></svg>